<svg xmlns="http://www.w3.org/2000/svg" width="172.175" height="30.027" viewBox="0 0 172.175 30.027"><g id="Group_82" data-name="Group 82" transform="translate(0 0)"><path id="Path_81" data-name="Path 81" d="M53.655,13.566l-1.021,3.095H64.873V13.566ZM46.311.573V30.067H65.9V26.972H50.126V16.712h0V13.539h0V3.667H65.595V.573Z" transform="translate(-3.223 -0.04)" fill="#fff"></path><path id="Path_82" data-name="Path 82" d="M94.395.573v23.76L76.349.573H72.533V30.067h3.61V6.1L94.189,30.067H98V.573Z" transform="translate(-5.048 -0.04)" fill="#fff"></path><path id="Path_83" data-name="Path 83" d="M116.774.573,104.255,30.067h3.96l10.54-25.74,5.506,13.364h-7.425l-1.052,3.094h9.755l3.816,9.282h4.229L121,.573Z" transform="translate(-7.256 -0.04)" fill="#fff"></path><path id="Path_84" data-name="Path 84" d="M132.639.573V3.668h9.282v26.4h3.816V3.668h9.281V.573Z" transform="translate(-9.231 -0.04)" fill="#fff"></path><path id="Path_85" data-name="Path 85" d="M166.05.573,153.532,30.067h3.96l10.54-25.74,5.507,13.364h-7.425l-1.052,3.094h9.755l3.816,9.282h4.228L170.279.573Z" transform="translate(-10.685 -0.04)" fill="#fff"></path><g id="Group_83" data-name="Group 83" transform="translate(0 0)"><g id="Group_82-2" data-name="Group 82" clip-path="url(#clip-path)"><path id="Path_86" data-name="Path 86" d="M27.438,26.649l-3.8,0a28.434,28.434,0,0,1,1.635-4.9c.869-1.644,1.638-2.279,3.024-4.956C30.86,11.837,33.15,4.021,29.425,0a23.179,23.179,0,0,1-7.334,10.658l.86,1.548,3.667-3.095c1.086-.916,1.773-.334,1.031,2.463s-4.536,8.146-7.063,8.969c-2.961.967-3.6-2.038-3.618-2.809-.02-.707-.013-1.05,0-1.259.088-2.242.314-8.4.314-8.4l2.465-3.552L15.71.555l-.02-.02-.019.02L11.639,4.528,14.1,8.081s.226,6.153.314,8.4c.008.21.017.552,0,1.261-.021.769-.658,3.774-3.618,2.808-2.527-.824-6.322-6.174-7.065-8.969s-.055-3.38,1.031-2.463l3.669,3.094.86-1.548A23.185,23.185,0,0,1,1.955,0C-1.768,4.021.522,11.837,3.085,16.792,4.471,19.47,5.24,20.1,6.108,21.748a28.434,28.434,0,0,1,1.635,4.9l-3.8,0-.611-3.1L.924,22.118,1.94,30.027h27.5l1.017-7.908L28.05,23.551ZM15.69,27.934h0a2.971,2.971,0,1,1,2.973-2.971,2.972,2.972,0,0,1-2.973,2.971" transform="translate(0 0)" fill="#fff"></path></g></g></g></svg>